<?xml version="1.0" standalone="no"?><svg xmlns="http://www.w3.org/2000/svg" viewBox="0 0 1440 320"><path fill="#d0fad0" fill-opacity="1" d="M0,160L30,160C60,160,120,160,180,138.7C240,117,300,75,360,80C420,85,480,139,540,144C600,149,660,107,720,85.3C780,64,840,64,900,80C960,96,1020,128,1080,144C1140,160,1200,160,1260,144C1320,128,1380,96,1410,80L1440,64L1440,0L1410,0C1380,0,1320,0,1260,0C1200,0,1140,0,1080,0C1020,0,960,0,900,0C840,0,780,0,720,0C660,0,600,0,540,0C480,0,420,0,360,0C300,0,240,0,180,0C120,0,60,0,30,0L0,0Z"></path></svg>